<svg width="107" height="32" viewBox="0 0 107 32" fill="none" xmlns="http://www.w3.org/2000/svg">
<path d="M32.3138 16.0005C32.3138 20.4222 30.5047 24.4215 27.5799 27.312C24.656 30.2075 20.6164 32 16.1574 32H5.70823C2.55761 32 0 29.4672 0 26.3472V5.65875C0 4.09576 0.641159 2.68182 1.67464 1.65937C2.7031 0.634933 4.13593 0 5.70823 0H16.1564C25.0805 0 32.3138 7.16212 32.3138 16.0005Z" fill="white"/>
<path d="M24.3361 16.0019C24.3371 16.61 24.1023 17.2201 23.6347 17.6821L17.4258 23.8307C16.9562 24.2948 16.3422 24.5263 15.7281 24.5263C15.113 24.5263 14.498 24.2948 14.0304 23.8307L7.82248 17.6841C7.3529 17.2191 7.12012 16.61 7.12012 16.0009C7.12012 15.3928 7.3529 14.7837 7.82248 14.3197L14.0304 8.17006C14.499 7.70702 15.115 7.47451 15.7281 7.4765C16.3422 7.4765 16.9562 7.70702 17.4258 8.17204L23.6337 14.3187C24.1013 14.7837 24.3361 15.3938 24.3361 16.0019Z" fill="#FF4300"/>
<path d="M105.61 18.0381C104.915 18.0381 104.352 18.5955 104.352 19.2841V25.6772L96.9526 18.4048C96.747 18.2021 96.4881 18.0868 96.2202 18.054C96.16 18.0451 96.0978 18.0391 96.0356 18.0391C95.3412 18.0391 94.7783 18.5965 94.7783 19.2851V28.6601C94.7783 29.3476 95.3412 29.9051 96.0356 29.9051C96.7299 29.9051 97.2938 29.3476 97.2938 28.6601V22.2501L104.72 29.5484C104.967 29.7908 105.289 29.911 105.61 29.91H105.611C106.305 29.9091 106.867 29.3516 106.867 28.665V19.2861C106.867 18.5965 106.304 18.0381 105.61 18.0381Z" fill="white"/>
<path d="M62.9157 18.0381C62.2213 18.0381 61.6575 18.5955 61.6575 19.2841V23.9731C61.6575 25.8719 60.0972 27.417 58.1797 27.417C56.2623 27.417 54.702 25.8719 54.702 23.9731V19.2841C54.702 18.5965 54.1391 18.0381 53.4438 18.0381C52.7495 18.0381 52.1855 18.5955 52.1855 19.2841V23.9731C52.1855 27.2461 54.8746 29.9081 58.1787 29.9081C61.4839 29.9081 64.1719 27.2451 64.1719 23.9731V19.2841C64.1739 18.5965 63.61 18.0381 62.9157 18.0381Z" fill="white"/>
<path d="M43.9902 18.0371H40.945C39.3195 18.0371 37.998 19.3467 37.998 20.9554V26.9898C37.998 28.5985 39.3205 29.9081 40.945 29.9081H43.9902C47.2954 29.9081 49.9834 27.2451 49.9834 23.9731C49.9834 20.6991 47.2944 18.0371 43.9902 18.0371ZM43.9902 27.417H40.945C40.7072 27.417 40.5135 27.2252 40.5135 26.9898V20.9554C40.5135 20.7199 40.7072 20.5282 40.945 20.5282H43.9902C45.9077 20.5282 47.4679 22.0733 47.4679 23.9721C47.4679 25.8719 45.9077 27.417 43.9902 27.417Z" fill="white"/>
<path d="M86.5811 18.0381C83.2759 18.0381 80.5879 20.701 80.5879 23.9731V28.662C80.5879 29.3496 81.1508 29.9081 81.8451 29.9081C82.5395 29.9081 83.1034 29.3506 83.1034 28.662V26.7871H90.0598V28.662C90.0598 29.3496 90.6227 29.9081 91.317 29.9081C92.0114 29.9081 92.5753 29.3506 92.5753 28.662V23.9731C92.5753 20.701 89.8862 18.0381 86.5811 18.0381ZM83.1034 24.297V23.9741C83.1034 22.0752 84.6636 20.5301 86.5811 20.5301C88.4985 20.5301 90.0588 22.0752 90.0588 23.9741V24.297H83.1034Z" fill="white"/>
<path d="M73.7869 23.2977L77.8737 20.293C78.4316 19.8826 78.5479 19.1026 78.1335 18.5501C77.7192 17.9977 76.9315 17.8824 76.3736 18.2928L68.8924 23.7935V19.2824C68.8924 18.5948 68.3295 18.0364 67.6352 18.0364C66.9409 18.0364 66.377 18.5938 66.377 19.2824V28.6216C66.377 29.3092 66.9398 29.8666 67.6352 29.8666C68.3295 29.8666 68.8924 29.3092 68.8924 28.6216V26.8957L71.7541 24.7911L76.2091 29.5089C76.4569 29.7712 76.792 29.9034 77.1282 29.9034C77.4362 29.9034 77.7442 29.7921 77.9871 29.5675C78.4948 29.0976 78.5209 28.3096 78.0463 27.8068L73.7869 23.2977Z" fill="white"/>
<path d="M105.612 2.09149C104.917 2.09149 104.354 2.64892 104.354 3.33751V12.6767C104.354 13.3643 104.916 13.9227 105.612 13.9227C106.306 13.9227 106.869 13.3653 106.869 12.6767V3.33652C106.869 2.64892 106.306 2.09149 105.612 2.09149Z" fill="white"/>
<path d="M81.8461 13.9217H86.5791H87.756H98.5333C100.53 13.9217 102.155 12.313 102.155 10.3357V3.33652C102.155 2.64892 101.592 2.09149 100.897 2.09149C100.203 2.09149 99.6391 2.64892 99.6391 3.33652V10.3357C99.6391 10.9398 99.1434 11.4307 98.5333 11.4307H91.9732C92.3415 10.759 92.5502 9.98989 92.5502 9.17312C92.5502 6.5549 90.3989 4.42455 87.755 4.42455H83.4435C82.7492 4.42455 82.1853 4.98197 82.1853 5.67056C82.1853 6.35816 82.7482 6.91559 83.4435 6.91559H87.755C89.0123 6.91559 90.0347 7.9281 90.0347 9.17312C90.0347 10.4181 89.0123 11.4307 87.755 11.4307H86.5781H81.8461C81.1518 11.4307 80.5879 11.9881 80.5879 12.6757C80.5889 13.3643 81.1518 13.9217 81.8461 13.9217Z" fill="white"/>
<path d="M77.1285 2.08911H60.5225C58.5288 2.08911 56.9064 3.69582 56.9064 5.67017C56.9064 7.64452 58.5288 9.25123 60.5225 9.25123H70.3607H74.0622H74.7665C75.3736 9.25123 75.8672 9.7401 75.8672 10.3412C75.8672 10.9424 75.3736 11.4313 74.7665 11.4313H67.7639H67.3004H55.8087C55.1986 11.4313 54.7029 10.9404 54.7029 10.3363V3.33612C54.7029 2.64853 54.1401 2.0901 53.4457 2.0901C52.7514 2.0901 52.1885 2.64753 52.1885 3.33612V10.3353C52.1885 12.3126 53.813 13.9213 55.8097 13.9213H67.3004H67.7639H74.7665C76.7602 13.9213 78.3827 12.3146 78.3827 10.3403C78.3827 8.3659 76.7602 6.75919 74.7665 6.75919H74.0622H70.3607H60.5225C59.9155 6.75919 59.4218 6.27033 59.4218 5.66918C59.4218 5.06803 59.9155 4.57916 60.5225 4.57916H77.1275C77.8218 4.57916 78.3847 4.02173 78.3847 3.33414C78.3857 2.64654 77.8228 2.08911 77.1285 2.08911Z" fill="white"/>
<path d="M48.7272 4.5703C48.0328 4.5703 47.4689 5.12773 47.4689 5.81631V7.98641C47.4689 9.88525 45.9087 11.4303 43.9912 11.4303C42.0737 11.4303 40.5135 9.88525 40.5135 7.98641V5.81631C40.5135 5.12872 39.9506 4.5703 39.2563 4.5703C38.5619 4.5703 37.999 5.12773 37.999 5.81631V7.98641C37.999 11.2594 40.6881 13.9214 43.9922 13.9214C47.2963 13.9214 49.9854 11.2585 49.9854 7.98641V5.81631C49.9844 5.12773 49.4215 4.5703 48.7272 4.5703Z" fill="white"/>
<path d="M43.6207 6.29686C43.7241 6.39921 43.8595 6.44988 43.994 6.44988C44.1284 6.44988 44.2649 6.39921 44.3672 6.29686L45.7338 4.94353C45.8362 4.84218 45.8883 4.70705 45.8883 4.5739C45.8883 4.43976 45.8372 4.30562 45.7338 4.20427L44.3682 2.85193C44.2649 2.74959 44.1294 2.69891 43.995 2.69891C43.8595 2.69891 43.7241 2.74959 43.6217 2.85193L42.2551 4.20526C42.1518 4.30761 42.1006 4.44175 42.1006 4.5749C42.1006 4.70904 42.1518 4.84318 42.2551 4.94552L43.6207 6.29686Z" fill="white"/>
</svg>
