<svg width="16" height="16" viewBox="0 0 16 16" fill="none" xmlns="http://www.w3.org/2000/svg">
<path d="M3 12.1167V13V3V12.1167ZM3 14C2.74444 14 2.51389 13.9 2.30833 13.7C2.10278 13.5 2 13.2667 2 13V3C2 2.74444 2.10278 2.51389 2.30833 2.30833C2.51389 2.10278 2.74444 2 3 2H13C13.2667 2 13.5 2.10278 13.7 2.30833C13.9 2.51389 14 2.74444 14 3V5.23333H13V3H3V13H13V10.7833H14V13C14 13.2667 13.9 13.5 13.7 13.7C13.5 13.9 13.2667 14 13 14H3ZM8.96667 11.1167C8.58889 11.1167 8.28889 11.0056 8.06667 10.7833C7.84444 10.5611 7.73333 10.2667 7.73333 9.9V6.11667C7.73333 5.73889 7.84444 5.44167 8.06667 5.225C8.28889 5.00833 8.58889 4.9 8.96667 4.9H13.4667C13.8444 4.9 14.1444 5.00833 14.3667 5.225C14.5889 5.44167 14.7 5.73889 14.7 6.11667V9.9C14.7 10.2667 14.5889 10.5611 14.3667 10.7833C14.1444 11.0056 13.8444 11.1167 13.4667 11.1167H8.96667ZM13.7 10.1167V5.9H8.73333V10.1167H13.7Z" fill="#070706"/>
<path d="M9.78105 8.57899C9.5207 8.31864 9.5207 7.89653 9.78105 7.63618L10.7239 6.69337C10.9842 6.43302 11.4063 6.43302 11.6667 6.69337L12.6095 7.63618C12.8698 7.89653 12.8698 8.31864 12.6095 8.57899L11.6667 9.5218C11.4063 9.78215 10.9842 9.78215 10.7239 9.5218L9.78105 8.57899Z" fill="#070706"/>
</svg>
