<svg width="20" height="20" viewBox="0 0 20 20" fill="none" xmlns="http://www.w3.org/2000/svg">
<path d="M5.83301 15C4.3089 15.3431 3.33301 15.8702 3.33301 16.4614C3.33301 17.4952 6.31778 18.3333 9.99967 18.3333C13.6816 18.3333 16.6663 17.4952 16.6663 16.4614C16.6663 15.8702 15.6904 15.3431 14.1663 15" stroke="#070706" stroke-width="1.5" stroke-linecap="round"/>
<path d="M12.0827 7.49999C12.0827 8.65058 11.1499 9.58332 9.99935 9.58332C8.84876 9.58332 7.91602 8.65058 7.91602 7.49999C7.91602 6.3494 8.84876 5.41666 9.99935 5.41666C11.1499 5.41666 12.0827 6.3494 12.0827 7.49999Z" stroke="#070706" stroke-width="1.5"/>
<path d="M11.0472 14.578C10.7661 14.8487 10.3904 15 9.99948 15C9.60851 15 9.23284 14.8487 8.95177 14.578C6.37793 12.084 2.92867 9.29794 4.61077 5.2531C5.52027 3.06609 7.70347 1.66666 9.99948 1.66666C12.2955 1.66666 14.4787 3.06609 15.3882 5.2531C17.0682 9.29284 13.6274 12.0926 11.0472 14.578Z" stroke="#070706" stroke-width="1.5"/>
</svg>
