<svg width="23" height="23" viewBox="0 0 23 23" fill="none" xmlns="http://www.w3.org/2000/svg">
<path d="M20.103 19.4096V11.6046C19.6372 11.7787 19.146 11.875 18.649 11.8897C18.5979 11.8897 18.5494 11.8919 18.5017 11.8919C17.6321 11.8942 16.779 11.6542 16.0382 11.1987C15.2976 11.6541 14.4447 11.8941 13.5752 11.8919C12.7093 11.893 11.8607 11.6498 11.1269 11.19C10.3829 11.6515 9.52423 11.8947 8.64872 11.8919C7.77687 11.893 6.92266 11.6463 6.18568 11.1805C5.44871 11.6463 4.5945 11.893 3.72265 11.8919C3.67543 11.8919 3.62777 11.8919 3.57665 11.8897H3.57405C3.06255 11.8745 2.55732 11.7729 2.07976 11.589V19.4096H0.693359V20.7961H21.4894V19.4096H20.103ZM9.70498 16.6368H5.54577V13.3441C5.54577 13.2982 5.56403 13.2541 5.59653 13.2216C5.62903 13.1891 5.67311 13.1708 5.71907 13.1708H9.53168C9.57764 13.1708 9.62172 13.1891 9.65422 13.2216C9.68672 13.2541 9.70498 13.2982 9.70498 13.3441V16.6368ZM16.637 19.4096H13.171V13.3441C13.171 13.2982 13.1892 13.2541 13.2217 13.2216C13.2542 13.1891 13.2983 13.1708 13.3443 13.1708H16.4637C16.5097 13.1708 16.5537 13.1891 16.5862 13.2216C16.6187 13.2541 16.637 13.2982 16.637 13.3441V19.4096Z" fill="#FF4300"/>
<path d="M21.3408 7.3774L19.3184 2.77281C18.7166 1.38641 18.7166 1.38641 17.3302 1.38641H4.85257C3.46617 1.38641 3.46617 1.38641 2.86221 2.77281L0.839798 7.3774C0.449872 8.21834 0.965008 9.08181 0.965441 9.08224L0.983204 9.11084C1.0014 9.13943 1.03216 9.18666 1.05339 9.21352C1.05772 9.21915 1.06162 9.22522 1.06552 9.23085L1.29255 9.5077L1.5226 9.73039L1.5408 9.74598C1.66871 9.85512 1.80551 9.95338 1.94979 10.0397V10.0419C2.4213 10.3275 2.95849 10.4867 3.50949 10.5042C3.54502 10.5042 3.58054 10.5042 3.6165 10.5042C4.4502 10.5057 5.25351 10.1913 5.86464 9.62424C5.95289 9.54246 6.03636 9.45566 6.11463 9.36429C6.19317 9.45556 6.27677 9.54235 6.36505 9.62424C6.97618 10.1913 7.7795 10.5057 8.61319 10.5042C9.6218 10.5042 10.5225 10.0709 11.11 9.39678C11.1109 9.39596 11.1121 9.3955 11.1133 9.3955C11.1145 9.3955 11.1156 9.39596 11.1165 9.39678L11.3617 9.62467C11.973 10.1918 12.7765 10.5062 13.6103 10.5046C14.6193 10.5046 15.5214 10.0714 16.1084 9.39505C16.6959 10.0714 17.5975 10.5046 18.607 10.5046H18.7149C19.252 10.4846 19.7747 10.3248 20.2312 10.041C20.2724 10.0163 20.3118 9.99034 20.3517 9.96434C20.6597 9.75663 20.9276 9.4951 21.1428 9.19229L21.2295 9.06231C21.2685 8.97393 21.7151 8.18281 21.3408 7.3774Z" fill="#FF4300"/>
</svg>
