<svg width="24" height="24" viewBox="0 0 24 24" fill="none" xmlns="http://www.w3.org/2000/svg">
<g id="discount-tag">
<g id="discount-tag-02">
<path id="Vector" d="M11.5459 9.74829L11.5322 9.75442M14.4753 16.2879L14.4617 16.294" stroke="#272727" stroke-width="2" stroke-linecap="round" stroke-linejoin="round"/>
<path id="Vector_2" d="M16.8633 14.0352L9.13587 11.9646" stroke="#272727" stroke-width="1.5" stroke-linecap="round" stroke-linejoin="round"/>
<circle id="Ellipse 1480" cx="6.5" cy="6.50024" r="1.5" transform="rotate(180 6.5 6.50024)" stroke="#272727" stroke-width="1.5" stroke-linecap="round" stroke-linejoin="round"/>
<path id="Vector_3" d="M21.2258 11.1439C22.2289 12.2643 22.2505 13.9546 21.3298 15.1437C19.5029 17.5033 17.5033 19.5029 15.1437 21.3298C13.9546 22.2505 12.2643 22.2289 11.1439 21.2258C8.10211 18.5022 5.31646 15.6559 2.62812 12.5279C2.36233 12.2187 2.19608 11.8397 2.15877 11.4336C1.99377 9.63798 1.65481 4.46467 3.05974 3.05974C4.46467 1.65481 9.63798 1.99377 11.4336 2.15876C11.8397 2.19608 12.2187 2.36233 12.528 2.62811C15.6559 5.31646 18.5022 8.10211 21.2258 11.1439Z" stroke="#272727" stroke-width="1.5"/>
</g>
</g>
</svg>
